<svg xmlns="http://www.w3.org/2000/svg" width="828" height="332" viewBox="0 0 828 332" version="1.1"><path d="M 360.637 83.009 C 336.593 89.413, 322.491 105.578, 320.483 129.038 C 319.648 138.796, 321.978 150.251, 325.519 153.792 C 326.884 155.156, 328 156.816, 328 157.480 C 328 159.706, 337.657 168.789, 343.609 172.162 C 353.250 177.625, 355.599 178.195, 370.660 178.722 C 384.882 179.220, 400.576 177.304, 402.070 174.886 C 402.541 174.125, 402.548 170.903, 402.083 169.193 C 402.038 169.025, 400.762 169.551, 399.250 170.363 C 392.526 173.971, 387.509 175.106, 377.981 175.173 C 363.760 175.274, 356.334 172.563, 348.224 164.311 C 339.733 155.673, 336.015 145.931, 336.006 132.299 C 335.992 112.224, 343.296 98.006, 357.189 91.064 C 362.558 88.380, 364.355 88, 371.660 88 C 377.661 88, 380.002 88.351, 380.008 89.250 C 380.019 91.090, 396.118 96.147, 397.723 94.815 C 399.170 93.614, 401.413 86.079, 400.573 85.240 C 400.266 84.933, 396.299 83.864, 391.757 82.864 C 381.399 80.585, 369.529 80.640, 360.637 83.009 M 455.518 85.250 C 452.173 93.616, 426.697 151.700, 421.957 161.768 C 416.308 173.766, 415.954 177.623, 420.536 177.279 C 422.156 177.157, 423.621 176.707, 423.793 176.279 C 423.965 175.850, 426.242 170.325, 428.853 164 L 433.601 152.500 437.471 152.179 C 440.198 151.954, 441.601 152.323, 442.220 153.429 C 442.965 154.760, 445.676 155, 459.961 155 L 476.822 155 481.593 166.466 C 485.647 176.209, 486.787 178.079, 489.182 178.914 C 490.933 179.524, 492 179.537, 492 178.948 C 492 178.427, 494.025 178, 496.500 178 C 499.652 178, 501 177.588, 501 176.624 C 501 175.415, 499.561 171.850, 494.490 160.500 C 489.405 149.120, 487.704 145.232, 485.399 139.726 C 483.966 136.302, 481.939 131.588, 480.896 129.250 C 474.043 113.892, 464.538 92.258, 462.662 87.750 C 461.679 85.388, 461.498 84, 462.173 84 C 462.858 84, 462.796 83.459, 462 82.500 C 459.712 79.743, 457.312 80.762, 455.518 85.250 M 670 81.750 C 647.317 84.232, 631.794 94.214, 626.068 110 C 623.968 115.787, 622.743 117.959, 621.879 117.425 C 618.956 115.619, 619.892 141.773, 623.089 151.264 C 626.331 160.887, 634.811 173, 638.307 173 C 639.391 173, 642.460 174.342, 645.125 175.982 C 651.796 180.087, 657.574 181.335, 667.272 180.766 C 681.244 179.947, 695.474 173.766, 703.106 165.200 C 705.409 162.615, 709.140 156.675, 711.397 152 L 715.500 143.500 715.500 128.500 L 715.500 113.500 712 106.504 C 706.511 95.533, 695.978 86.277, 686.221 83.851 C 680.594 82.452, 672.803 81.443, 670 81.750 M 131.250 83.770 L 110 84.040 109.980 93.770 C 109.897 133.273, 109.548 140.451, 107.615 142.385 C 105.900 144.100, 105.877 144.352, 107.365 145.184 C 108.772 145.972, 109 148.331, 109 162.102 L 109 178.104 111.750 179.063 C 115.039 180.209, 116.013 180.252, 115.961 179.250 C 115.939 178.838, 117.402 178.275, 119.211 178 L 122.500 177.500 123.120 158.500 C 123.460 148.050, 123.798 137.813, 123.870 135.750 L 124 132 139.066 132 L 154.133 132 153.816 129.250 L 153.500 126.500 140 126 C 132.575 125.725, 125.938 125.136, 125.250 124.691 C 124.339 124.101, 124 119.701, 124 108.467 L 124 93.051 126.950 91.526 C 130.294 89.797, 145.279 89.395, 149.308 90.927 C 150.649 91.437, 154.953 92.170, 158.873 92.556 L 166 93.258 165.985 89.879 C 165.953 82.876, 168.353 83.299, 131.250 83.770 M 185.715 83.680 C 185.289 84.394, 184.464 173.404, 184.853 176.775 C 185.046 178.446, 190.129 180.409, 190.926 179.120 C 191.251 178.594, 193.089 178.014, 195.009 177.831 L 198.500 177.500 198.769 155.250 L 199.038 133 205.269 133.136 C 208.696 133.211, 210.488 133.467, 209.250 133.706 C 206.311 134.272, 206.339 136, 209.287 136 C 211.868 136, 212.336 136.589, 230.984 163.250 C 241.928 178.898, 246 183.439, 246 180 C 246 179.450, 247.688 178.994, 249.750 178.986 C 255.686 178.965, 258.230 177.988, 257.694 175.937 C 257.350 174.623, 257.660 174.301, 258.863 174.720 C 259.763 175.034, 258.665 173.313, 256.422 170.895 C 252.563 166.736, 236.837 147.879, 230.447 139.750 C 228.826 137.688, 226.728 136, 225.785 136 C 223.566 136, 221.338 132.156, 223.207 131.553 C 237.483 126.941, 243.890 122.653, 247.114 115.556 C 249.275 110.798, 249.431 105.952, 247.588 100.790 C 246.635 98.121, 246.577 96.959, 247.381 96.653 C 249.217 95.953, 241.970 90.126, 235 86.697 L 228.500 83.500 207.352 83.180 C 195.721 83.004, 185.984 83.229, 185.715 83.680 M 283.667 83.667 C 282.688 84.645, 282.882 176.266, 283.866 177.818 C 284.504 178.824, 286.095 178.941, 290.601 178.311 L 296.500 177.487 296.702 131.226 C 296.813 105.782, 297.177 84.522, 297.511 83.982 C 298.194 82.877, 284.762 82.571, 283.667 83.667 M 524.035 84.934 C 523.366 86.184, 523 102.567, 523 131.243 C 523 168.321, 523.237 175.937, 524.441 177.559 C 525.595 179.113, 526.244 179.279, 527.691 178.391 C 529.377 177.358, 529.518 174.718, 529.762 139.641 C 529.915 117.689, 530.406 102, 530.941 102 C 532.140 102, 535 104.878, 535 106.085 C 535 106.603, 548.328 123.724, 564.618 144.131 C 586.113 171.058, 594.474 180.860, 595.103 179.868 C 595.579 179.115, 595.976 156.984, 595.985 130.687 L 596 82.873 592.750 83.187 L 589.500 83.500 589 116 L 588.500 148.500 572.617 128.500 C 563.881 117.500, 555.100 106.475, 553.103 104 C 551.106 101.525, 547.497 96.895, 545.085 93.712 C 538.404 84.897, 535.726 83, 529.958 83 C 526.149 83, 524.842 83.427, 524.035 84.934 M 208.181 89.119 C 198.404 90.745, 198.917 89.533, 199.228 110.297 C 199.497 128.319, 199.522 128.503, 201.750 128.820 C 202.988 128.995, 204 128.770, 203.999 128.320 C 203.999 127.869, 206.292 127.659, 209.096 127.853 C 219.099 128.546, 228.839 124.023, 231.606 117.400 C 233.511 112.841, 233.370 103.582, 231.330 99.283 C 229.605 95.648, 224.818 92.010, 221.750 92.004 C 219.779 92, 219.307 90.039, 221.250 89.930 C 223.543 89.801, 218.539 88.140, 216 88.187 C 214.625 88.213, 211.106 88.632, 208.181 89.119 M 656.785 93.068 C 649.644 97.309, 645.250 102.699, 640.944 112.500 C 637.897 119.436, 637.066 139.400, 639.410 149.364 C 641.430 157.953, 645.908 165.522, 651.497 169.792 C 656.793 173.839, 660.646 175, 668.777 175 C 679.796 175, 688.539 168.931, 693.990 157.500 C 700.105 144.675, 701.586 128.915, 698.008 114.719 C 694.490 100.757, 688.553 93.756, 677.509 90.546 C 668.772 88.006, 664.417 88.536, 656.785 93.068 M 452.919 104.750 C 451.222 109.272, 445.398 123.775, 440.600 135.426 C 438.125 141.436, 436.329 146.723, 436.609 147.176 C 436.889 147.629, 438.918 148, 441.118 148 C 443.530 148, 444.873 147.603, 444.500 147 C 444.099 146.351, 448.823 146, 457.941 146 C 468.841 146, 472 145.707, 472 144.694 C 472 143.417, 468.174 133.493, 461.516 117.500 C 459.684 113.100, 457.898 107.813, 457.547 105.750 C 456.784 101.261, 454.420 100.750, 452.919 104.750 M 463.595 197.548 C 462.242 198.901, 461.972 201.268, 462.068 210.936 C 462.132 217.395, 462.493 223.180, 462.871 223.792 C 463.635 225.027, 479.406 225.921, 480.538 224.793 C 481.668 223.666, 480.217 221, 478.472 221 C 477.598 221, 477.160 221.450, 477.500 222 C 477.888 222.628, 475.677 223, 471.559 223 L 465 223 465 217.559 C 465 212.286, 466.459 209.507, 467.956 211.930 C 469.086 213.757, 479.500 212.919, 479.500 211 C 479.500 209.781, 478.141 209.548, 472.250 209.754 L 465 210.009 465 205.004 C 465 202.252, 465.410 200, 465.912 200 C 466.870 200, 466.801 197.467, 465.815 196.481 C 465.498 196.164, 464.499 196.644, 463.595 197.548 M 489.162 198.750 C 488.029 199.713, 486.808 202.163, 486.450 204.195 C 485.900 207.312, 486.197 208.288, 488.354 210.445 C 490.923 213.014, 494 213.862, 494 212 C 494 211.450, 494.702 211, 495.559 211 C 496.416 211, 496.877 210.610, 496.583 210.134 C 496.289 209.658, 494.983 209.472, 493.682 209.721 C 492.295 209.986, 490.632 209.489, 489.664 208.521 C 487.588 206.445, 487.835 200.373, 490 200.249 C 492.646 200.098, 497.046 202.217, 498.073 204.137 C 499.555 206.905, 502 206.471, 502 203.441 C 502 201.990, 501.567 201.149, 501 201.500 C 500.450 201.840, 500 201.432, 500 200.594 C 500 199.756, 499.046 198.560, 497.879 197.935 C 496.389 197.138, 495.961 197.127, 496.438 197.900 C 496.877 198.610, 496.013 199, 494 199 C 492.176 199, 491.138 198.585, 491.500 198 C 492.436 196.485, 491.459 196.798, 489.162 198.750 M 335.500 199.719 C 336.600 199.987, 338.288 200.905, 339.250 201.758 C 340.212 202.612, 341 202.880, 341 202.355 C 341 200.566, 338.606 199, 336.050 199.116 C 333.980 199.210, 333.876 199.324, 335.500 199.719 M 357.309 200.250 C 355.535 202.620, 346.899 222.232, 347.406 222.739 C 347.686 223.019, 348.692 221.617, 349.642 219.624 L 351.370 216 358.701 216 L 366.032 216 367.701 219.500 C 368.619 221.425, 369.715 223, 370.136 223 C 370.558 223, 370.099 221.313, 369.117 219.250 C 368.135 217.188, 366.086 212.884, 364.563 209.686 C 361.390 203.022, 359.969 202.480, 362.914 209.057 C 363.986 211.452, 364.643 213.769, 364.373 214.206 C 363.638 215.394, 354.219 215.164, 353.462 213.939 C 353.102 213.356, 353.863 210.443, 355.153 207.468 C 357.065 203.059, 357.852 202.166, 359.401 202.644 C 360.885 203.102, 361.159 202.858, 360.651 201.534 C 360.293 200.600, 360 199.648, 360 199.418 C 360 198.511, 358.193 199.070, 357.309 200.250 M 378.655 200.829 C 376.910 202.757, 376.362 208, 377.906 208 C 378.405 208, 378.589 207.146, 378.316 206.102 C 376.864 200.547, 384.963 197.430, 388.326 202.250 C 389.189 203.488, 389.919 203.970, 389.948 203.321 C 390.126 199.304, 381.715 197.447, 378.655 200.829 M 426.974 199 C 426.926 199.275, 426.672 203.550, 426.410 208.500 C 425.868 218.734, 426.587 224.813, 428.153 223.247 C 429.468 221.932, 429.405 202.524, 428.078 200.246 C 427.518 199.286, 427.022 198.725, 426.974 199 M 436.510 200.016 C 436.856 200.575, 437.475 200.824, 437.887 200.570 C 438.299 200.315, 439.250 200.959, 440 202 C 440.750 203.041, 441.715 203.676, 442.143 203.412 C 443.389 202.642, 439.737 199, 437.719 199 C 436.709 199, 436.165 199.457, 436.510 200.016 M 407.365 214.500 C 407.368 220, 407.536 222.122, 407.738 219.216 C 407.941 216.311, 407.939 211.811, 407.734 209.216 C 407.528 206.622, 407.363 209, 407.365 214.500 M 339.612 209.469 C 338.177 211.659, 337.228 212, 332.560 212 C 329.181 212, 326.978 211.533, 326.662 210.750 C 326.385 210.063, 326.190 212.650, 326.229 216.500 C 326.291 222.559, 326.381 222.895, 326.900 219 C 327.490 214.577, 327.569 214.495, 331.500 214.223 C 336.296 213.891, 339.793 212.255, 341.158 209.704 C 342.708 206.809, 341.478 206.621, 339.612 209.469 M 441 208.012 C 441 209.762, 438.522 211.831, 435.526 212.583 C 434.032 212.958, 433.226 213.542, 433.736 213.882 C 434.245 214.222, 435.717 216.637, 437.008 219.250 C 438.687 222.650, 439.944 223.996, 441.427 223.985 C 442.567 223.976, 443.046 223.639, 442.491 223.235 C 440.705 221.935, 436.095 214.239, 436.725 213.609 C 437.059 213.274, 437.965 213, 438.738 213 C 441.679 213, 444.152 208.830, 442 207.500 C 441.450 207.160, 441 207.391, 441 208.012 M 379.558 210.093 C 379.866 210.592, 381.155 211, 382.423 211 C 383.690 211, 385.980 212.238, 387.511 213.750 C 389.578 215.792, 390.019 215.975, 389.225 214.460 C 388.636 213.339, 387.108 211.914, 385.827 211.294 C 382.565 209.714, 378.888 209.010, 379.558 210.093 M 486 218.427 C 486 221.639, 490.379 225, 494.562 225 C 498.075 225, 502.075 221.258, 501.921 218.115 C 501.870 217.080, 501.661 216.949, 501.338 217.750 C 501.060 218.438, 500.295 219, 499.637 219 C 498.980 219, 497.793 219.900, 497 221 C 495.257 223.419, 493.712 223.513, 490.484 221.398 C 488.506 220.102, 488.233 219.433, 489.055 217.898 C 489.897 216.323, 489.724 216, 488.035 216 C 486.547 216, 486 216.653, 486 218.427 M 377 218.680 C 377 219.214, 378.042 220.630, 379.314 221.826 C 382.487 224.806, 386.527 224.651, 388.612 221.469 C 389.525 220.077, 390.046 218.713, 389.771 218.438 C 389.496 218.163, 388.525 219.077, 387.612 220.469 C 385.478 223.727, 382.540 223.685, 379.452 220.354 C 378.104 218.899, 377 218.145, 377 218.680" stroke="none" fill="#010102" fill-rule="evenodd"/><path d="M 128.485 47.976 C 129.063 48.911, 128.240 49.099, 125.136 48.740 C 122.566 48.443, 120.359 48.766, 119.260 49.601 C 117.746 50.750, 118.689 50.946, 126 51.003 C 135.430 51.078, 144.824 52.794, 149.700 55.333 C 151.461 56.250, 153.425 57, 154.067 57 C 156.178 57, 166.567 68.425, 170.457 75.025 C 173.955 80.960, 174.315 82.271, 174.773 90.750 C 175.048 95.838, 175.648 100, 176.108 100 C 177.638 100, 178.648 93.564, 177.755 89.500 C 177.272 87.300, 176.759 84.600, 176.614 83.500 C 175.225 72.898, 163.683 55, 158.236 55 C 157.124 55, 155.982 54.395, 155.698 53.655 C 154.981 51.786, 142.895 48.203, 134.610 47.402 C 129.255 46.885, 127.890 47.013, 128.485 47.976 M 684.231 57.676 C 682.433 57.925, 681.206 58.524, 681.503 59.006 C 681.801 59.487, 680.460 59.624, 678.522 59.310 C 675.699 58.852, 675 59.062, 675 60.369 C 675 61.537, 674.092 62, 671.800 62 C 669.466 62, 668.899 62.299, 669.704 63.104 C 670.477 63.877, 672.258 63.918, 675.654 63.241 C 687.394 60.902, 701.703 63.218, 716.245 69.812 C 719.698 71.378, 723.081 72.473, 723.762 72.246 C 724.443 72.019, 725 72.451, 725 73.205 C 725 73.959, 727 76.248, 729.444 78.291 C 742.791 89.448, 752 108.926, 752 126.001 C 752 133.839, 750.151 148.765, 748.880 151.189 C 748.338 152.223, 748.383 153.119, 748.997 153.498 C 749.549 153.839, 750 153.191, 750 152.059 C 750 150.927, 750.450 150, 751 150 C 751.550 150, 752 149.100, 752 148 C 752 146.900, 752.450 146, 753 146 C 753.550 146, 754 144.425, 754 142.500 C 754 140.575, 754.411 139, 754.914 139 C 756.151 139, 756.135 113.463, 754.895 108.720 C 754.285 106.389, 753.485 105.200, 752.807 105.619 C 752.065 106.078, 751.912 105.486, 752.336 103.798 C 752.681 102.422, 752.634 100.968, 752.232 100.565 C 751.540 99.873, 751.428 99.506, 751.125 96.941 C 751.056 96.359, 750.480 96.203, 749.845 96.595 C 749.159 97.020, 748.961 96.872, 749.358 96.229 C 750.272 94.750, 747.952 89.912, 746.699 90.686 C 746.145 91.029, 745.971 90.855, 746.314 90.301 C 747.082 89.058, 744.997 83.022, 743.116 81.045 C 742.155 80.034, 742.079 79.474, 742.866 79.211 C 743.490 79.003, 744 76.846, 744 74.417 C 744 70.750, 743.679 70, 742.107 70 C 741.066 70, 739.937 69.277, 739.598 68.394 C 739.132 67.181, 738.311 66.971, 736.241 67.535 C 731.813 68.742, 729.206 68.207, 721.644 64.540 C 711.774 59.752, 693.466 56.393, 684.231 57.676 M 89.374 66.985 C 88.204 67.458, 86.244 69.253, 85.018 70.975 C 83.128 73.628, 82.901 74.821, 83.529 78.803 C 83.936 81.386, 84.230 88.225, 84.183 94 C 84.118 101.933, 84.328 103.767, 85.040 101.500 C 85.559 99.850, 85.706 95.749, 85.367 92.386 C 84.979 88.534, 85.140 86.031, 85.802 85.622 C 86.473 85.208, 86.547 83.906, 86.006 82.020 C 85.349 79.729, 85.589 78.521, 87.079 76.626 C 88.136 75.283, 89 73.876, 89 73.500 C 89 73.124, 89.900 71.671, 91 70.273 C 94.155 66.261, 93.658 65.255, 89.374 66.985 M 622.823 85.722 C 621.781 86.984, 621.766 87.415, 622.750 87.746 C 623.438 87.977, 624 88.609, 624 89.151 C 624 89.692, 623.174 89.873, 622.165 89.552 C 620.711 89.091, 620.099 89.751, 619.218 92.735 C 617.230 99.463, 617.006 102.760, 618.453 103.961 C 619.394 104.742, 620.025 104.769, 620.470 104.049 C 620.826 103.472, 621.541 103, 622.059 103 C 623.528 103, 623.166 105.159, 621.362 107.153 C 620.014 108.642, 619.951 109.236, 621.004 110.505 C 622.327 112.098, 623.196 111.842, 623.657 109.721 C 625.142 102.895, 626.387 99.266, 628.039 96.946 C 629.117 95.431, 630 93.721, 630 93.145 C 630 92.570, 630.781 91.662, 631.735 91.128 C 633.294 90.256, 633.173 89.921, 630.549 87.829 C 626.245 84.397, 624.344 83.879, 622.823 85.722 M 597.619 85.807 C 596.825 87.092, 598.240 181.168, 599.040 180.290 C 599.904 179.343, 600.724 160.047, 601.626 119.458 C 602.122 97.148, 601.989 88.848, 601.111 87.208 C 599.898 84.941, 598.501 84.381, 597.619 85.807 M 298.052 132.969 C 298.148 166.549, 297.867 180.544, 297.094 180.802 C 296.492 181.003, 296 181.743, 296 182.448 C 296 183.153, 295.059 184.926, 293.910 186.387 C 291.912 188.928, 291.840 189.910, 292.277 208.772 C 292.801 231.381, 293.671 235.011, 301.363 246.687 C 306.143 253.942, 317.125 265.888, 323 270.222 C 324.925 271.642, 330.550 274.262, 335.500 276.045 C 343.845 279.050, 345.446 279.290, 357.500 279.351 C 379.205 279.460, 389.628 275.288, 404.606 260.497 C 412.711 252.494, 414.322 250.272, 419.110 240.497 L 424.497 229.500 424.852 213.797 C 425.188 198.945, 425.058 197.616, 422.461 189.297 C 420.951 184.458, 418.839 179.793, 417.768 178.929 C 415.729 177.282, 415.609 176.055, 416.174 162.652 C 416.455 156.009, 416.364 155.714, 413.152 152.844 C 408.533 148.717, 403.971 149.116, 402.779 153.750 C 402.319 155.537, 401.600 157, 401.182 157 C 400.763 157, 397.382 155.415, 393.667 153.478 C 389.951 151.541, 383.444 148.778, 379.206 147.339 C 372.493 145.059, 370.019 144.741, 360 144.873 C 353.675 144.956, 347.150 145.131, 345.500 145.262 L 342.500 145.500 342.215 134.627 C 341.792 118.483, 344.945 109.052, 353.496 100.888 C 357.817 96.761, 365.224 92.039, 367.485 91.968 C 368.043 91.951, 369.400 91.223, 370.500 90.351 C 372.369 88.870, 372.113 88.803, 366.594 89.327 C 363.345 89.635, 360.420 90.260, 360.094 90.714 C 359.767 91.169, 358.263 92.084, 356.752 92.748 C 345.641 97.629, 337.124 114.303, 337.036 131.346 C 336.998 138.600, 339.356 148.826, 341.454 150.504 C 342.144 151.056, 343.065 152.631, 343.501 154.004 C 345.718 160.996, 352.107 167.720, 359.992 171.360 C 363.835 173.134, 366.417 173.438, 377.500 173.421 C 389.478 173.404, 390.961 173.191, 396.358 170.709 C 402.560 167.856, 404 167.922, 404 171.059 C 404 172.127, 404.623 173, 405.383 173 C 406.144 173, 406.991 173.859, 407.266 174.909 C 407.677 176.479, 406.678 177.226, 401.633 179.120 C 396.134 181.184, 393.744 181.426, 378.500 181.461 C 363.323 181.496, 360.857 181.261, 355.500 179.272 C 347.453 176.283, 343.171 174.030, 337.175 169.628 C 332.714 166.353, 326 158.063, 326 155.829 C 326 153.667, 322.161 155.484, 316.611 160.273 C 306.673 168.848, 303.049 171.297, 302.500 169.808 C 302.235 169.089, 301.901 150.628, 301.759 128.785 C 301.520 92.141, 301.361 88.933, 299.708 87.285 C 297.986 85.569, 297.921 87.340, 298.052 132.969 M 401.690 88.750 C 401.455 89.162, 400.958 91.188, 400.586 93.250 C 399.933 96.872, 400.008 97, 402.788 97 C 405.860 97, 406.300 95.926, 405.347 90.750 C 404.879 88.207, 402.685 87.006, 401.690 88.750 M 202.250 92.031 C 200.041 92.919, 200 93.242, 200 109.909 C 200 119.244, 200.402 127.131, 200.894 127.434 C 201.386 127.738, 202.540 126.107, 203.459 123.810 C 204.779 120.512, 205.084 116.810, 204.909 106.222 C 204.734 95.607, 204.981 92.626, 206.094 91.921 C 207.277 91.172, 207.262 91.038, 206 91.079 C 205.175 91.105, 203.488 91.534, 202.250 92.031 M 469.080 98 C 469.039 98.825, 470.320 102.200, 471.926 105.500 C 473.533 108.800, 474.880 110.825, 474.920 110 C 474.961 109.175, 473.680 105.800, 472.074 102.500 C 470.467 99.200, 469.120 97.175, 469.080 98 M 249.594 103.518 C 249.942 104.903, 249.924 108.453, 249.555 111.406 C 248.458 120.187, 240.664 127.516, 228.652 131.063 C 222.623 132.843, 222.633 134.432, 228.666 133.527 C 239.003 131.977, 248.376 125.985, 251.922 118.661 C 254.614 113.101, 254.740 104.980, 252.171 102.655 C 249.611 100.338, 248.859 100.590, 249.594 103.518 M 454.827 104.530 C 454.457 105.096, 451.581 111.846, 448.437 119.530 C 437.820 145.475, 437.965 145.049, 439.506 145.641 C 440.275 145.936, 441.434 145.850, 442.081 145.450 C 443.328 144.680, 449.915 131.035, 450.496 128.023 C 450.684 127.046, 452.024 123.281, 453.475 119.655 C 455.344 114.983, 456.023 111.670, 455.806 108.281 C 455.638 105.652, 455.197 103.963, 454.827 104.530 M 531.986 140.583 C 531.979 160.338, 531.701 177.512, 531.370 178.750 C 530.466 182.121, 533.792 181.675, 535.098 178.250 C 535.767 176.497, 536.055 164.660, 535.894 145.592 C 535.664 118.293, 534.818 107.485, 532.749 105.416 C 532.337 105.004, 531.994 120.829, 531.986 140.583 M 475.289 113 C 477.241 118.478, 480.399 125, 481.098 125 C 482.104 125, 478.649 116.706, 476.379 113.672 C 475.485 112.477, 474.995 112.175, 475.289 113 M 93.385 129.439 C 93.089 130.211, 93.422 131.891, 94.127 133.172 C 94.831 134.452, 95.428 136.023, 95.454 136.662 C 95.479 137.301, 96.599 138.779, 97.942 139.946 C 100.157 141.870, 100.469 141.913, 101.308 140.413 C 102.009 139.162, 102.421 139.064, 103.005 140.008 C 103.429 140.695, 104.277 140.947, 104.888 140.569 C 106.495 139.576, 106.255 137, 104.557 137 C 103.763 137, 102.525 136.183, 101.807 135.184 C 101.088 134.185, 99.713 133.075, 98.750 132.716 C 97.787 132.357, 97 131.422, 97 130.638 C 97 128.679, 94.052 127.701, 93.385 129.439 M 486.935 139.750 C 488.486 143.463, 492.576 152.800, 496.024 160.500 C 499.471 168.200, 502.373 175.516, 502.472 176.758 C 502.716 179.798, 504.077 180.025, 505.122 177.199 C 505.590 175.934, 505.601 175.128, 505.147 175.409 C 504.692 175.690, 501.723 169.976, 498.549 162.710 C 495.375 155.445, 491.775 147.250, 490.548 144.500 C 489.321 141.750, 487.741 138.037, 487.037 136.250 C 486.333 134.463, 485.387 133, 484.935 133 C 484.483 133, 485.383 136.037, 486.935 139.750 M 200 155.418 C 200 167.198, 199.727 177.548, 199.393 178.418 C 198.992 179.462, 199.341 180, 200.418 180 C 203.811 180, 204.429 175.096, 204.170 150.250 C 204.008 134.723, 203.911 134, 202 134 C 200.062 134, 200 134.667, 200 155.418 M 124.636 158.640 C 123.689 165.548, 123.867 175.800, 124.946 176.467 C 126.711 177.557, 128.004 169.648, 127.352 161.750 C 127 157.488, 126.388 154, 125.992 154 C 125.596 154, 124.986 156.088, 124.636 158.640 M 429.500 166 C 426.878 172.600, 424.343 178, 423.866 178 C 423.390 178, 423 178.900, 423 180 C 423 182.298, 425.729 182.690, 428.229 180.750 C 429.923 179.436, 439 158.192, 439 155.541 C 439 154.587, 438.098 154, 436.634 154 C 434.542 154, 433.715 155.391, 429.500 166 M 636.584 178.864 C 636.203 179.480, 636.304 180.721, 636.807 181.620 C 637.428 182.729, 637.947 182.896, 638.416 182.136 C 638.797 181.520, 638.696 180.279, 638.193 179.380 C 637.572 178.271, 637.053 178.104, 636.584 178.864 M 253.500 180 L 248.500 180.686 254.750 180.843 C 258.355 180.934, 261 180.577, 261 180 C 261 179.450, 260.438 179.071, 259.750 179.157 C 259.063 179.244, 256.250 179.623, 253.500 180 M 645.784 186.001 C 645.227 191.298, 646.318 194, 649.016 194 C 650.313 194, 651.181 193.083, 651.619 191.250 C 651.980 189.738, 652.719 187.938, 653.260 187.250 C 653.992 186.321, 653.603 186, 651.744 186 C 650.261 186, 648.637 185.085, 647.751 183.751 C 646.299 181.565, 646.244 181.628, 645.784 186.001 M 647.015 188.750 C 647.007 190.537, 647.450 192, 648 192 C 649.270 192, 649.270 188.965, 648 187 C 647.264 185.862, 647.027 186.284, 647.015 188.750 M 683.750 193.732 C 686.087 193.943, 689.913 193.943, 692.250 193.732 C 694.587 193.522, 692.675 193.349, 688 193.349 C 683.325 193.349, 681.413 193.522, 683.750 193.732 M 323.220 198.250 C 321.832 199.943, 321.379 203.227, 322.325 204.735 C 322.751 205.415, 323.333 209.915, 323.618 214.735 C 324.134 223.462, 325.106 226.306, 326.938 224.450 C 327.784 223.593, 328.701 219.744, 328.918 216.133 C 328.970 215.266, 329.739 214.960, 331.024 215.296 C 334.633 216.240, 339.988 214.068, 341.932 210.872 C 344.178 207.179, 343.230 201.417, 339.939 198.750 C 337.303 196.615, 324.866 196.243, 323.220 198.250 M 353.999 203.500 C 352.349 207.075, 349.639 212.950, 347.975 216.555 C 346.311 220.161, 345.213 223.536, 345.534 224.055 C 346.778 226.067, 349.060 224.838, 350.746 221.250 C 352.474 217.571, 352.624 217.494, 358.709 217.203 L 364.912 216.907 366.976 220.953 C 368.996 224.913, 372 226.451, 372 223.526 C 372 220.608, 359.960 197, 358.472 197 C 357.631 197, 355.708 199.794, 353.999 203.500 M 378.635 199.073 C 373.444 203.156, 375.895 211.087, 382.934 212.982 C 385.057 213.554, 387.064 214.724, 387.394 215.583 C 388.247 217.808, 386.269 221, 384.036 221 C 382.058 221, 379 218.528, 379 216.929 C 379 216.418, 378.325 216, 377.500 216 C 374.907 216, 375.629 221.527, 378.465 223.385 C 381.870 225.616, 387.277 225.456, 389.445 223.061 C 393.132 218.986, 390.610 210, 385.779 210 C 382.223 210, 380 208.070, 380 204.984 C 380 202.672, 380.540 201.902, 382.513 201.407 C 385.259 200.718, 388 202.361, 388 204.696 C 388 205.548, 388.722 205.998, 389.750 205.787 C 393.882 204.938, 388.307 197, 383.579 197 C 382.309 197, 380.084 197.933, 378.635 199.073 M 397.431 198.112 C 396.476 199.656, 398.888 200.966, 402.718 200.985 L 405.937 201 406.218 212.668 C 406.417 220.906, 406.868 224.459, 407.750 224.752 C 408.704 225.068, 409 222.305, 409 213.083 C 409 200.057, 408.773 200.560, 414.500 200.896 C 417.157 201.052, 419.427 199.500, 418.569 198.112 C 417.637 196.604, 398.363 196.604, 397.431 198.112 M 328 206 L 328 211 332.300 211 C 337.239 211, 339 209.686, 339 206 C 339 202.314, 337.239 201, 332.300 201 L 328 201 328 206 M 356.453 208.090 C 355.574 209.790, 355.056 211.703, 355.301 212.341 C 355.739 213.483, 361.498 213.835, 362.549 212.785 C 363.247 212.086, 359.872 205, 358.840 205 C 358.406 205, 357.332 206.391, 356.453 208.090 M 298.031 217.628 C 298.070 222.352, 301.442 225.429, 305.473 224.418 C 308.129 223.751, 308.952 220.706, 306.830 219.395 C 306.038 218.906, 305.871 219.222, 306.313 220.374 C 307.287 222.911, 304.519 223.474, 301.584 221.337 C 298.144 218.831, 298.372 218, 302.500 218 C 306.477 218, 307.049 216.632, 303.798 214.892 C 302.104 213.986, 301.504 213.987, 301.201 214.898 C 300.900 215.801, 300.472 215.806, 299.403 214.919 C 298.240 213.954, 298.005 214.416, 298.031 217.628 M 310.589 226.250 C 310.677 228.037, 311.079 230.287, 311.482 231.250 C 311.948 232.365, 311.768 233, 310.985 233 C 310.028 233, 310.037 233.339, 311.022 234.527 C 312.135 235.868, 312.436 235.777, 313.496 233.777 C 314.463 231.954, 314.434 231.279, 313.352 230.390 C 312.608 229.779, 312 227.867, 312 226.140 C 312 224.413, 311.646 223, 311.214 223 C 310.782 223, 310.500 224.463, 310.589 226.250 M 318 235.500 C 318 239.081, 318.790 239.810, 320.651 237.949 C 322.074 236.526, 321.109 232, 319.383 232 C 318.469 232, 318 233.187, 318 235.500" stroke="none" fill="#d4942f" fill-rule="evenodd"/><path d="M 677.500 63.932 C 671.469 64.896, 656 70.033, 656 71.071 C 656 71.890, 646.377 79.141, 644 80.114 C 643.175 80.451, 642.197 80.255, 641.826 79.678 C 641.374 78.974, 640.620 79.071, 639.534 79.972 C 638.411 80.904, 638.234 81.634, 638.958 82.358 C 640.519 83.919, 640.230 84.792, 637.909 85.529 C 635.943 86.153, 633.284 90.928, 632.428 95.372 C 632.219 96.462, 631.586 97.814, 631.023 98.377 C 630.461 98.939, 630 99.860, 630 100.423 C 630 100.985, 630.672 100.485, 631.494 99.312 C 635.588 93.467, 649.131 85.872, 659.925 83.366 C 682.349 78.162, 702.243 87.001, 712 106.504 L 715.500 113.500 715.500 128.500 L 715.500 143.500 711.397 152 C 704.564 166.156, 697.340 172.570, 682 178.102 C 676.682 180.020, 673.481 180.451, 664.401 180.473 L 653.302 180.500 655.842 183.191 C 657.239 184.671, 658.741 185.660, 659.180 185.389 C 659.619 185.118, 661.445 185.586, 663.239 186.429 C 667.974 188.656, 681.848 191.967, 686.500 191.981 C 691.983 191.998, 707.673 189.247, 712.270 187.463 C 716.969 185.640, 719.103 185.606, 716.750 187.392 C 713.200 190.087, 715.154 190.042, 720.220 187.312 C 726.648 183.850, 737.866 173.479, 743.665 165.640 C 747.915 159.894, 749.852 155.494, 746.086 160.139 C 745.033 161.438, 743.809 162.138, 743.365 161.696 C 742.921 161.253, 743.055 160.578, 743.663 160.196 C 744.270 159.813, 746.050 155.675, 747.618 151 C 750.216 143.252, 750.467 141.261, 750.452 128.500 C 750.439 116.505, 750.109 113.569, 748.151 108 C 741.782 89.891, 728.925 75.970, 712.219 69.096 C 699.776 63.976, 688.095 62.239, 677.500 63.932 M 631.419 80.647 C 631.567 81.657, 632.789 82.412, 634.580 82.599 L 637.500 82.905 635 80.975 C 631.919 78.596, 631.107 78.522, 631.419 80.647 M 656.785 93.068 C 649.644 97.309, 645.250 102.699, 640.944 112.500 C 637.897 119.436, 637.066 139.400, 639.410 149.364 C 641.430 157.953, 645.908 165.522, 651.497 169.792 C 656.793 173.839, 660.646 175, 668.777 175 C 679.796 175, 688.539 168.931, 693.990 157.500 C 700.105 144.675, 701.586 128.915, 698.008 114.719 C 694.490 100.757, 688.553 93.756, 677.509 90.546 C 668.772 88.006, 664.417 88.536, 656.785 93.068 M 731 174.552 C 726.979 178.514, 725.119 180.965, 726.124 180.979 C 727.685 180.999, 736.466 172.705, 738.241 169.535 C 739.946 166.488, 737.376 168.268, 731 174.552 M 654.675 192.658 C 653.790 193.543, 655.913 196, 657.563 196 C 659.552 196, 660.445 193.896, 658.878 192.904 C 657.225 191.856, 655.573 191.760, 654.675 192.658" stroke="none" fill="#cb0154" fill-rule="evenodd"/><path d="M 156 54.061 C 156 54.577, 156.814 55, 157.809 55 C 158.804 55, 160.491 55.661, 161.559 56.468 C 163.803 58.166, 165 58.383, 165 57.094 C 165 56.596, 162.975 55.498, 160.500 54.655 C 158.025 53.811, 156 53.544, 156 54.061 M 731 57.968 C 731 58.500, 729.763 59.614, 728.250 60.442 C 725.525 61.934, 725.521 61.954, 727.750 62.590 C 730.831 63.471, 730.935 67.478, 727.856 66.673 C 726.567 66.336, 726.075 66.475, 726.622 67.022 C 727.811 68.211, 732.778 68.475, 736.241 67.533 C 738.310 66.971, 739.132 67.182, 739.598 68.394 C 739.937 69.277, 741.066 70, 742.107 70 C 743.679 70, 744 70.750, 744 74.417 C 744 76.846, 743.490 79.003, 742.866 79.211 C 742.134 79.455, 742.339 80.196, 743.447 81.304 C 745.628 83.485, 747.325 82.480, 746.728 79.359 C 746.475 78.035, 746.658 76.711, 747.134 76.417 C 749.319 75.066, 748.027 72.306, 742.685 66.916 C 740.395 64.606, 739.301 64.190, 736.821 64.686 C 734.066 65.237, 733.868 65.112, 734.768 63.398 C 736.018 61.016, 734.615 57, 732.532 57 C 731.690 57, 731 57.436, 731 57.968 M 99.667 58.667 C 98.313 60.020, 99.051 61.202, 100.500 60 C 102.313 58.496, 102.505 60.034, 100.750 62.002 C 99.687 63.194, 99.761 63.206, 101.250 62.079 C 102.213 61.351, 103 60.135, 103 59.378 C 103 57.953, 100.841 57.493, 99.667 58.667 M 663.500 63.405 C 659.650 65.239, 655.535 67.671, 654.356 68.809 C 653.177 69.948, 652.020 70.687, 651.784 70.451 C 650.986 69.653, 641.350 78.550, 641.741 79.723 C 641.955 80.366, 642.885 80.599, 643.815 80.243 C 645.918 79.439, 654.130 73.314, 655.570 71.476 C 657.029 69.614, 674.213 64, 678.456 64 C 680.340 64, 682.160 63.550, 682.500 63 C 683.286 61.728, 682.293 61.744, 675.953 63.104 C 672.200 63.908, 670.508 63.908, 669.704 63.104 C 668.899 62.299, 669.466 62, 671.800 62 C 673.560 62, 675 61.550, 675 61 C 675 59.127, 670.513 60.065, 663.500 63.405 M 706.083 66.400 C 706.313 66.620, 709.277 67.924, 712.672 69.298 C 724.718 74.174, 734.852 83.060, 741.983 95 C 747.754 104.663, 750.151 112.793, 750.978 125.500 L 751.693 136.500 751.846 127.910 C 752.181 109.191, 743.556 90.087, 729.444 78.291 C 727 76.248, 725 73.959, 725 73.205 C 725 72.451, 724.440 72.020, 723.755 72.248 C 723.071 72.476, 719.221 71.164, 715.200 69.332 C 708.844 66.435, 704.748 65.118, 706.083 66.400 M 82.519 73.500 C 82.234 74.875, 81.764 77.133, 81.476 78.518 C 80.819 81.678, 85.365 89.098, 86.363 86.496 C 86.709 85.595, 86.558 85.155, 86.018 85.489 C 85.490 85.815, 84.772 84.942, 84.423 83.548 C 84.073 82.154, 83.385 81.262, 82.893 81.566 C 82.402 81.870, 82 81.390, 82 80.500 C 82 79.610, 82.369 79.110, 82.819 79.388 C 83.270 79.667, 83.443 78.564, 83.204 76.938 C 82.966 75.312, 83.327 73.311, 84.008 72.491 C 84.843 71.485, 84.886 71, 84.141 71 C 83.535 71, 82.805 72.125, 82.519 73.500 M 86.598 77.163 C 85.114 79.283, 85.347 81.521, 86.950 80.531 C 87.719 80.055, 89.061 75, 88.418 75 C 88.250 75, 87.432 75.973, 86.598 77.163 M 622.943 84.081 C 620.871 86.990, 620.885 90, 622.969 90 C 624.424 90, 624.255 88.252, 622.750 87.746 C 621.766 87.415, 621.781 86.984, 622.823 85.722 C 624.344 83.879, 626.245 84.397, 630.549 87.829 C 633.173 89.921, 633.294 90.256, 631.735 91.128 C 630.781 91.662, 630 92.570, 630 93.145 C 630 93.721, 629.117 95.431, 628.039 96.946 C 626.960 98.460, 625.593 101.680, 625 104.100 C 624.407 106.520, 623.749 109.175, 623.538 110 C 623.326 110.825, 623.119 111.668, 623.077 111.872 C 623.034 112.077, 622.325 111.685, 621.500 111 C 620.280 109.988, 620 110.035, 620 111.255 C 620 112.080, 620.617 113.267, 621.372 113.894 C 622.483 114.816, 623.665 113.177, 627.596 105.266 C 630.264 99.895, 632.517 95.050, 632.602 94.500 C 633.119 91.150, 636.137 86.091, 637.964 85.512 C 639.144 85.137, 639.939 84.318, 639.731 83.692 C 639.196 82.087, 633 81.906, 633 83.495 C 633 84.188, 632.336 85.306, 631.525 85.979 C 630.310 86.988, 629.845 86.754, 628.889 84.657 C 627.177 80.898, 625.336 80.719, 622.943 84.081 M 464 87 C 464.825 87.533, 465.076 87.976, 464.559 87.985 C 464.041 87.993, 464.452 88.610, 465.471 89.355 C 466.606 90.185, 467.080 91.348, 466.694 92.355 C 466.347 93.260, 466.499 94, 467.031 94 C 467.564 94, 468.007 95.237, 468.015 96.750 C 468.027 98.893, 468.245 99.169, 469 98 C 469.646 97, 469.974 96.917, 469.985 97.750 C 469.993 98.438, 470.520 99, 471.155 99 C 471.863 99, 471.694 98.319, 470.718 97.241 C 469.843 96.274, 468.893 94.194, 468.607 92.619 C 468.046 89.525, 465.363 85.991, 463.595 86.015 C 462.993 86.024, 463.175 86.467, 464 87 M 368.845 88.730 C 371.947 89.111, 372.056 89.242, 370.345 90.539 C 368.753 91.745, 368.723 91.941, 370.128 91.968 C 372.007 92.005, 374.299 89.632, 373.325 88.658 C 372.963 88.296, 371.054 88.072, 369.083 88.160 L 365.500 88.320 368.845 88.730 M 205.834 90.876 C 206.908 91.557, 206.859 91.840, 205.584 92.329 C 204.713 92.664, 204.007 93.514, 204.015 94.219 C 204.027 95.227, 204.210 95.217, 204.871 94.175 C 205.333 93.445, 208.139 92.258, 211.106 91.535 L 216.500 90.221 210.500 90.126 C 206.880 90.068, 205.029 90.366, 205.834 90.876 M 83.300 96 C 83.300 99.025, 83.487 100.263, 83.716 98.750 C 83.945 97.237, 83.945 94.763, 83.716 93.250 C 83.487 91.737, 83.300 92.975, 83.300 96 M 297.447 131 C 297.447 148.875, 297.582 156.188, 297.748 147.250 C 297.914 138.313, 297.914 123.688, 297.748 114.750 C 297.582 105.813, 297.447 113.125, 297.447 131 M 249.286 107.500 C 249.294 110.250, 249.488 111.256, 249.718 109.736 C 249.947 108.216, 249.941 105.966, 249.704 104.736 C 249.467 103.506, 249.279 104.750, 249.286 107.500 M 618.129 105.939 C 619.182 108.960, 619.315 109.025, 621.115 107.396 C 623.099 105.601, 623.657 103, 622.059 103 C 621.541 103, 620.826 103.472, 620.470 104.049 C 620.026 104.767, 619.381 104.731, 618.424 103.937 C 617.242 102.956, 617.196 103.265, 618.129 105.939 M 531 140.566 C 531 163.012, 530.614 177.852, 530.001 178.999 C 529.213 180.471, 529.394 180.990, 530.860 181.456 C 533.664 182.345, 536.008 181.047, 535.937 178.643 C 535.874 176.524, 535.863 176.525, 534.969 178.750 C 534.471 179.988, 533.322 181, 532.416 181 C 531.194 181, 530.923 180.417, 531.370 178.750 C 531.701 177.512, 531.979 160.386, 531.986 140.691 C 531.997 113.881, 532.290 105.061, 533.155 105.595 C 533.870 106.038, 534.038 105.870, 533.595 105.155 C 531.357 101.533, 531 106.408, 531 140.566 M 456.286 109.500 C 456.294 112.250, 456.488 113.256, 456.718 111.736 C 456.947 110.216, 456.941 107.966, 456.704 106.736 C 456.467 105.506, 456.279 106.750, 456.286 109.500 M 86.348 110.687 C 87.364 111.890, 87.946 113.278, 87.641 113.771 C 86.984 114.835, 90.850 123, 92.011 123 C 92.452 123, 92.579 122.105, 92.293 121.011 C 92.007 119.917, 91.421 119.240, 90.991 119.506 C 90.020 120.106, 89 117.580, 89 114.573 C 89 113.328, 87.987 111.453, 86.750 110.405 L 84.500 108.500 86.348 110.687 M 474.664 110.434 C 474.333 111.295, 474.547 112, 475.138 112 C 475.730 112, 475.946 112.698, 475.618 113.552 C 475.291 114.406, 475.446 114.842, 475.964 114.522 C 476.482 114.202, 477.583 115.192, 478.412 116.720 C 479.242 118.249, 479.938 118.983, 479.960 118.352 C 479.982 117.721, 478.935 115.328, 477.632 113.036 C 475.891 109.970, 475.106 109.282, 474.664 110.434 M 597.450 147 C 597.450 165.975, 597.584 173.738, 597.748 164.250 C 597.913 154.762, 597.913 139.238, 597.748 129.750 C 597.584 120.263, 597.450 128.025, 597.450 147 M 252.703 117.008 C 251 123.690, 241.558 130.514, 229.787 133.572 L 224.500 134.946 229 134.426 C 234.919 133.742, 243.671 129.686, 247.835 125.696 C 251.582 122.106, 254.320 117.459, 253.730 115.690 C 253.515 115.044, 253.053 115.637, 252.703 117.008 M 92.542 127.630 C 92.119 129.883, 92.289 131.685, 92.989 132.380 C 93.826 133.210, 93.950 133.059, 93.471 131.798 C 93.114 130.862, 93.102 129.644, 93.443 129.092 C 94.352 127.621, 96.724 128.835, 97.308 131.069 C 97.666 132.440, 98.637 132.971, 100.656 132.900 C 103.476 132.801, 103.479 132.795, 101.003 132.106 C 99.598 131.715, 98.505 130.670, 98.503 129.717 C 98.501 128.785, 98.072 128.051, 97.550 128.085 C 97.027 128.120, 96.254 127.215, 95.832 126.074 C 94.670 122.934, 93.301 123.581, 92.542 127.630 M 481.182 127.500 C 481.808 128.875, 482.747 130, 483.268 130 C 483.788 130, 483.955 130.675, 483.638 131.500 C 483.297 132.389, 483.628 133, 484.449 133 C 485.211 133, 486.621 135.137, 487.583 137.750 C 489.380 142.636, 491 145.279, 491 143.327 C 491 141.965, 486.938 132.667, 486.051 132 C 485.686 131.725, 484.795 130.037, 484.072 128.250 C 483.349 126.463, 482.147 125, 481.400 125 C 480.315 125, 480.272 125.502, 481.182 127.500 M 601.202 140.500 C 600.852 156.693, 599.977 177.102, 599.542 179.250 C 599.016 181.845, 600.870 181.375, 601.513 178.750 C 601.816 177.512, 601.928 165.700, 601.763 152.500 C 601.597 139.300, 601.345 133.900, 601.202 140.500 M 202.226 133.626 C 203.748 134.077, 203.988 136.009, 204.264 150.070 L 204.577 166.002 204.538 149.764 C 204.502 134.275, 204.408 133.516, 202.500 133.320 C 200.991 133.165, 200.924 133.240, 202.226 133.626 M 94 135.767 C 94 137.627, 97.837 142, 99.470 142 C 99.933 142, 99.059 140.924, 97.529 139.609 C 95.999 138.295, 95.036 136.751, 95.390 136.178 C 95.743 135.606, 95.575 134.856, 95.016 134.510 C 94.457 134.165, 94 134.730, 94 135.767 M 101.872 135.250 C 102.627 136.213, 103.865 137, 104.622 137 C 105.380 137, 106 137.648, 106 138.441 C 106 140.307, 103.739 141.716, 103.224 140.171 C 102.787 138.860, 101 139.573, 101 141.059 C 101 142.873, 104.902 141.979, 106.415 139.818 C 107.535 138.220, 107.653 137.287, 106.858 136.329 C 106.262 135.610, 105.355 135.281, 104.843 135.597 C 104.331 135.913, 103.145 135.571, 102.206 134.836 C 100.669 133.633, 100.636 133.674, 101.872 135.250 M 750 141.448 C 750 144.075, 744.791 159.486, 743.663 160.196 C 743.055 160.578, 742.921 161.253, 743.365 161.696 C 743.809 162.138, 744.978 161.507, 745.962 160.293 C 746.946 159.078, 747.967 158.300, 748.230 158.563 C 748.676 159.010, 754 147.995, 754 146.625 C 754 146.281, 753.550 146, 753 146 C 752.450 146, 752 146.900, 752 148 C 752 149.100, 751.550 150, 751 150 C 750.450 150, 750 150.927, 750 152.059 C 750 153.191, 749.549 153.839, 748.997 153.498 C 748.389 153.122, 748.339 152.214, 748.869 151.189 C 749.954 149.096, 751.329 140, 750.561 140 C 750.253 140, 750 140.652, 750 141.448 M 443.142 144.144 C 442.316 145.468, 441.175 146.017, 439.930 145.692 C 438.869 145.414, 438 145.595, 438 146.094 C 438 147.758, 441.667 147.026, 443.506 144.994 C 444.504 143.890, 445.119 142.786, 444.873 142.539 C 444.626 142.293, 443.847 143.015, 443.142 144.144 M 124.669 145.421 C 124.301 146.380, 124.072 150.164, 124.160 153.832 C 124.248 157.499, 124.502 159.037, 124.723 157.250 C 125.428 151.573, 126.691 153.735, 127.352 161.750 C 128.004 169.648, 126.711 177.557, 124.946 176.467 C 124.426 176.145, 124 176.396, 124 177.024 C 124 179.531, 126.580 177.112, 127.841 173.423 C 128.904 170.313, 128.966 167.320, 128.142 158.975 C 126.979 147.203, 125.780 142.525, 124.669 145.421 M 492 147.346 C 492 147.747, 494.937 154.678, 498.526 162.748 C 504.436 176.036, 505.826 181.246, 502.991 179.494 C 502.428 179.146, 502.286 178.330, 502.676 177.681 C 503.152 176.887, 502.870 176.916, 501.819 177.767 C 500.958 178.464, 499.409 178.795, 498.377 178.503 C 497.345 178.210, 498.022 178.678, 499.882 179.542 C 507.114 182.902, 507.584 179.506, 501.641 166.842 C 496.881 156.698, 495.005 152.344, 494.968 151.349 C 494.929 150.292, 492 146.343, 492 147.346 M 342.480 154.960 C 343.845 157.654, 345.443 160.156, 346.031 160.519 C 346.619 160.883, 346.178 159.459, 345.050 157.355 C 343.923 155.251, 343 153.009, 343 152.372 C 343 151.735, 342.324 150.955, 341.499 150.638 C 340.393 150.214, 340.652 151.353, 342.480 154.960 M 731 174.552 C 726.979 178.514, 725.119 180.965, 726.124 180.979 C 727.685 180.999, 736.466 172.705, 738.241 169.535 C 739.946 166.488, 737.376 168.268, 731 174.552 M 204.136 171.685 C 203.942 176.226, 202.303 180, 200.525 180 C 199.686 180, 199 179.564, 199 179.031 C 199 178.499, 198.287 178.336, 197.416 178.671 C 196.141 179.160, 196.092 179.443, 197.166 180.124 C 200.371 182.155, 202.894 181.087, 204.056 177.206 C 204.682 175.119, 204.986 172.307, 204.733 170.956 C 204.345 168.886, 204.251 169.001, 204.136 171.685 M 403 175.047 C 402.146 176.170, 399.347 177.466, 396.500 178.058 C 393.750 178.630, 389.759 179.475, 387.631 179.936 C 383.245 180.887, 361.545 180.591, 358.500 179.540 L 356.500 178.849 358.500 180.174 C 359.974 181.152, 365.098 181.492, 378 181.470 C 393.805 181.442, 396.094 181.215, 401.633 179.128 C 406.677 177.228, 407.676 176.479, 407.266 174.909 C 406.629 172.474, 404.915 172.529, 403 175.047 M 373.728 174.722 C 375.503 174.943, 378.653 174.946, 380.728 174.730 C 382.802 174.513, 381.350 174.333, 377.500 174.328 C 373.650 174.324, 371.952 174.501, 373.728 174.722 M 633.750 175.096 C 632.509 175.808, 632.010 177.322, 632.036 180.300 C 632.082 185.622, 635.501 190.039, 640.705 191.499 C 643.186 192.195, 644.608 193.236, 644.845 194.530 C 645.340 197.227, 647.954 200, 650.003 200 C 651.050 200, 652.296 198.475, 653.265 196.008 L 654.833 192.015 659.667 192.592 C 662.325 192.909, 665.850 193.613, 667.500 194.157 C 669.150 194.700, 675.676 195.398, 682.003 195.708 C 694.398 196.315, 701.334 195.335, 708.235 192 C 710.513 190.900, 712.760 190, 713.230 190 C 713.699 190, 715.050 189.100, 716.230 188 C 718.774 185.631, 717.454 185.452, 712.270 187.463 C 707.673 189.247, 691.983 191.998, 686.500 191.981 C 681.848 191.967, 667.974 188.656, 663.239 186.429 C 661.445 185.586, 659.564 185.152, 659.057 185.465 C 658.551 185.777, 657.533 185.172, 656.795 184.118 C 654.760 181.213, 644.015 175.352, 639.500 174.684 C 637.300 174.359, 634.712 174.545, 633.750 175.096 M 296.174 179.161 C 293.731 182.142, 294.364 182.917, 297.418 180.684 C 298.408 179.960, 299.056 178.683, 298.859 177.845 C 298.590 176.706, 297.915 177.037, 296.174 179.161 M 636.584 178.864 C 636.203 179.480, 636.304 180.721, 636.807 181.620 C 637.428 182.729, 637.947 182.896, 638.416 182.136 C 638.797 181.520, 638.696 180.279, 638.193 179.380 C 637.572 178.271, 637.053 178.104, 636.584 178.864 M 250 182 C 251.814 183.172, 255.772 183.172, 258.500 182 C 259.922 181.389, 258.767 181.125, 254.500 181.086 C 250.277 181.047, 248.944 181.318, 250 182 M 645.784 186.001 C 645.227 191.298, 646.318 194, 649.016 194 C 650.313 194, 651.181 193.083, 651.619 191.250 C 651.980 189.738, 652.719 187.938, 653.260 187.250 C 653.992 186.321, 653.603 186, 651.744 186 C 650.261 186, 648.637 185.085, 647.751 183.751 C 646.299 181.565, 646.244 181.628, 645.784 186.001 M 647.015 188.750 C 647.007 190.537, 647.450 192, 648 192 C 649.270 192, 649.270 188.965, 648 187 C 647.264 185.862, 647.027 186.284, 647.015 188.750 M 683.750 193.732 C 686.087 193.943, 689.913 193.943, 692.250 193.732 C 694.587 193.522, 692.675 193.349, 688 193.349 C 683.325 193.349, 681.413 193.522, 683.750 193.732 M 323.220 198.250 C 321.832 199.943, 321.379 203.227, 322.325 204.735 C 322.751 205.415, 323.333 209.915, 323.618 214.735 C 323.903 219.556, 324.516 223.888, 324.981 224.363 C 326.019 225.423, 328.006 224.317, 327.985 222.691 C 327.975 221.964, 327.607 222.073, 327.039 222.971 C 326.527 223.780, 325.900 224.230, 325.645 223.971 C 325.390 223.712, 325.028 217.875, 324.840 211 L 324.500 198.500 328 197.882 L 331.500 197.263 327.872 197.132 C 325.877 197.059, 323.784 197.563, 323.220 198.250 M 397.480 198.032 C 397.106 198.638, 397.070 199.403, 397.400 199.733 C 397.730 200.063, 398 199.808, 398 199.167 C 398 197.663, 417.599 197.527, 418.342 199.025 C 418.621 199.589, 418.735 199.476, 418.594 198.775 C 418.256 197.094, 398.489 196.399, 397.480 198.032 M 327.402 201.395 C 327.108 202.162, 327.046 204.524, 327.265 206.645 C 327.644 210.307, 327.672 210.262, 327.832 205.750 L 328 201 332.300 201 C 337.180 201, 338.940 202.274, 339.136 205.950 C 339.268 208.415, 339.287 208.422, 339.717 206.168 C 340.417 202.492, 337.426 200, 332.314 200 C 329.493 200, 327.747 200.496, 327.402 201.395 M 402.219 200.689 L 405.938 201.117 406.219 212.727 C 406.444 222.033, 406.798 224.418, 408 224.745 C 409.074 225.037, 409.155 224.907, 408.285 224.289 C 407.483 223.719, 406.973 219.525, 406.785 211.962 L 406.500 200.500 402.500 200.381 L 398.500 200.262 402.219 200.689 M 298.031 217.628 C 298.070 222.352, 301.442 225.429, 305.473 224.418 C 308.129 223.751, 308.952 220.706, 306.830 219.395 C 306.038 218.906, 305.871 219.222, 306.313 220.374 C 307.287 222.911, 304.519 223.474, 301.584 221.337 C 298.144 218.831, 298.372 218, 302.500 218 C 306.477 218, 307.049 216.632, 303.798 214.892 C 302.104 213.986, 301.504 213.987, 301.201 214.898 C 300.900 215.801, 300.472 215.806, 299.403 214.919 C 298.240 213.954, 298.005 214.416, 298.031 217.628 M 310.589 226.250 C 310.677 228.037, 311.079 230.287, 311.482 231.250 C 311.948 232.365, 311.768 233, 310.985 233 C 310.028 233, 310.037 233.339, 311.022 234.527 C 312.135 235.868, 312.436 235.777, 313.496 233.777 C 314.463 231.954, 314.434 231.279, 313.352 230.390 C 312.608 229.779, 312 227.867, 312 226.140 C 312 224.413, 311.646 223, 311.214 223 C 310.782 223, 310.500 224.463, 310.589 226.250 M 318 235.500 C 318 239.081, 318.790 239.810, 320.651 237.949 C 322.074 236.526, 321.109 232, 319.383 232 C 318.469 232, 318 233.187, 318 235.500" stroke="none" fill="#b05e42" fill-rule="evenodd"/></svg>